<svg width="332" height="166" viewBox="0 0 332 166" fill="none" xmlns="http://www.w3.org/2000/svg">
<path d="M165.219 91.8044L130.17 128.707L117.498 116.984L105.426 108.025L104.977 105.952L113.573 97.2144L136.657 75.2059L157.006 55.5993L174.891 37.9741L196.076 27.2304L206.804 21.6483L208.786 24.1128L206.829 31.7725L195.517 61.3579L185.838 71.7773L165.219 91.8044Z" fill="white" stroke="white"/>
<mask id="mask0_605_30" style="mask-type:alpha" maskUnits="userSpaceOnUse" x="106" y="25" width="100" height="101">
<path d="M194.09 58.4753L205.993 25L175.843 40.3547L106.938 106.167L130.122 125.897L194.09 58.4753Z" fill="#F8A339"/>
</mask>
<g mask="url(#mask0_605_30)">
<rect x="217.916" y="128.032" width="110.714" height="129.114" transform="rotate(179.328 217.916 128.032)" fill="#F8A339"/>
<path d="M220.599 67.7396L216.227 64.602L211.825 67.7248L208.108 63.7848L203.218 65.9901L200.29 61.3901L195.088 62.5982L193.056 57.5045L187.731 57.6718L186.667 52.2684L181.411 51.3888L181.355 45.8711L176.358 43.9765L177.31 38.5438L172.753 35.7025L174.68 30.5513L170.727 26.8661L173.56 22.1825L170.354 17.7866L173.989 13.7399L171.647 8.79211L175.953 5.52852L174.558 0.207733L179.38 -2.15476L178.984 -7.65626L184.147 -9.03227L184.763 -14.5156L190.081 -14.8554L191.687 -20.1225L196.968 -19.4138L199.506 -24.2742L204.559 -22.5426L207.938 -26.8207L212.579 -24.1288L216.676 -27.6699L220.739 -24.115L225.407 -26.7911L228.744 -22.5017L233.813 -24.2162L236.304 -19.3473L241.592 -20.0382L243.147 -14.7657L248.461 -14.408L249.024 -8.9226L254.174 -7.52916L253.724 -2.02909L258.522 0.349668L257.076 5.66566L261.35 8.94375L258.96 13.8835L262.555 17.9425L259.307 22.3275L262.094 27.0206L258.105 30.6924L259.982 35.85L255.397 38.6758L256.297 44.1116L251.282 45.9893L251.171 51.5068L245.907 52.3686L244.791 57.7682L239.467 57.583L237.385 62.6697L232.195 61.444L229.223 66.034L224.354 63.8123L220.599 67.7396Z" fill="#F9E5C7"/>
<rect width="13.4999" height="19.6831" transform="matrix(-0.690697 0.723144 -0.679484 -0.73369 215.544 27.2612)" fill="#483A3A"/>
</g>
<path d="M1.64062 137.961C1.44531 138 1.26953 137.863 1.11328 137.551C0.957031 137.199 0.78125 136.867 0.585938 136.555H1.23047C0.957031 135.695 0.878906 134.914 0.996094 134.211C1.15234 133.469 1.32812 132.766 1.52344 132.102C1.71875 131.398 1.875 130.734 1.99219 130.109C2.14844 129.445 2.08984 128.762 1.81641 128.059C2.01172 128.176 2.14844 128.137 2.22656 127.941C2.34375 127.707 2.42188 127.434 2.46094 127.121C2.53906 126.77 2.55859 126.418 2.51953 126.066C2.51953 125.676 2.5 125.363 2.46094 125.129C2.96875 123.918 3.35938 122.668 3.63281 121.379C3.94531 120.09 4.21875 118.82 4.45312 117.57C4.6875 116.281 4.94141 115.051 5.21484 113.879C5.52734 112.668 5.91797 111.535 6.38672 110.48C6.93359 110.402 7.5 110.48 8.08594 110.715C8.71094 110.91 9.12109 111.164 9.31641 111.477C10.5273 110.539 11.6016 109.406 12.5391 108.078C13.4766 106.75 14.4141 105.461 15.3516 104.211C16.3281 102.922 17.4219 101.789 18.6328 100.812C19.8438 99.8359 21.3477 99.25 23.1445 99.0547C24.082 99.7188 25.1367 100.441 26.3086 101.223C27.4805 101.965 28.4375 102.902 29.1797 104.035C29.4922 104.23 29.7852 104.445 30.0586 104.68C30.3711 104.875 30.6836 105.07 30.9961 105.266V106.145C31.543 106.652 31.9922 107.258 32.3438 107.961C32.7344 108.625 33.0664 109.348 33.3398 110.129C33.6523 110.871 33.9453 111.633 34.2188 112.414C34.4922 113.195 34.8047 113.918 35.1562 114.582C35.0781 114.816 35.0391 115.031 35.0391 115.227C35.0781 115.383 35.1172 115.559 35.1562 115.754C35.2344 115.91 35.293 116.105 35.332 116.34C35.3711 116.535 35.3906 116.789 35.3906 117.102C35.2344 119.172 34.5508 120.852 33.3398 122.141C32.168 123.391 30.7227 124.426 29.0039 125.246C27.3242 126.027 25.5273 126.711 23.6133 127.297C21.6992 127.844 19.9609 128.449 18.3984 129.113C18.3984 129.27 18.4766 129.348 18.6328 129.348C18.8281 129.348 18.8867 129.465 18.8086 129.699C19.9805 130.402 20.8789 130.969 21.5039 131.398C22.168 131.828 22.7734 132.199 23.3203 132.512C23.9062 132.785 24.5312 133.02 25.1953 133.215C25.8984 133.41 26.8555 133.645 28.0664 133.918C29.2773 134.191 30.2148 134.426 30.8789 134.621C31.582 134.777 32.207 134.914 32.7539 135.031C33.3008 135.109 33.8867 135.188 34.5117 135.266C35.1367 135.344 35.9766 135.441 37.0312 135.559C37.4609 135.988 37.8125 136.496 38.0859 137.082C38.3594 137.668 38.5547 138.254 38.6719 138.84C38.7891 139.426 38.8086 139.992 38.7305 140.539C38.6914 141.047 38.5352 141.457 38.2617 141.77C38.3008 141.926 38.3984 142.004 38.5547 142.004C38.75 141.965 38.9453 141.965 39.1406 142.004C38.8672 142.199 38.6328 142.434 38.4375 142.707C38.2422 142.98 38.0469 143.254 37.8516 143.527C37.6562 143.801 37.4219 144.055 37.1484 144.289C36.9141 144.523 36.6016 144.66 36.2109 144.699C34.8047 145.246 33.0078 145.266 30.8203 144.758C28.6328 144.25 25.8398 143.352 22.4414 142.062C20.7617 141.438 19.3945 140.871 18.3398 140.363C17.2852 139.855 16.3672 139.367 15.5859 138.898C14.8047 138.391 14.082 137.863 13.418 137.316C12.7539 136.73 11.9922 136.047 11.1328 135.266C11.0156 135.305 10.9375 135.383 10.8984 135.5C10.8984 135.617 10.8398 135.695 10.7227 135.734C10.5273 137.297 10.2148 138.566 9.78516 139.543C9.39453 140.52 8.80859 141.516 8.02734 142.531C7.40234 142.414 6.97266 142.473 6.73828 142.707C6.54297 142.941 6.28906 143.156 5.97656 143.352C5.58594 143.43 5.29297 143.41 5.09766 143.293C4.90234 143.215 4.72656 143.117 4.57031 143C4.41406 142.883 4.23828 142.766 4.04297 142.648C3.84766 142.531 3.53516 142.492 3.10547 142.531C2.98828 142.18 2.87109 141.848 2.75391 141.535C2.63672 141.184 2.32422 141.027 1.81641 141.066C1.93359 140.715 1.97266 140.422 1.93359 140.188C1.89453 139.914 1.83594 139.68 1.75781 139.484C1.67969 139.25 1.60156 139.016 1.52344 138.781C1.48438 138.547 1.52344 138.273 1.64062 137.961ZM21.2109 111.184C20.7031 111.926 20.1367 112.609 19.5117 113.234C18.8867 113.82 18.2617 114.445 17.6367 115.109C17.0508 115.734 16.5234 116.438 16.0547 117.219C15.5859 117.961 15.2539 118.859 15.0586 119.914C16.6992 119.719 18.418 119.27 20.2148 118.566C22.0117 117.824 23.7109 117.121 25.3125 116.457C25.1172 115.012 24.6094 113.859 23.7891 113C22.9688 112.102 22.1094 111.496 21.2109 111.184ZM72.9492 125.422C72.9102 125.891 72.9492 126.34 73.0664 126.77C73.1836 127.199 73.3203 127.629 73.4766 128.059C73.6719 128.449 73.8477 128.859 74.0039 129.289C74.1602 129.719 74.2773 130.148 74.3555 130.578C74.4336 131.125 74.4336 131.73 74.3555 132.395C74.2773 133.02 74.1406 133.645 73.9453 134.27C73.75 134.855 73.4961 135.402 73.1836 135.91C72.8711 136.379 72.5 136.73 72.0703 136.965C71.5234 137.668 70.8594 138.215 70.0781 138.605C69.2969 138.996 68.5742 139.465 67.9102 140.012C67.4805 140.285 66.9922 140.48 66.4453 140.598C65.9375 140.715 65.4102 140.832 64.8633 140.949C64.4336 141.184 63.9258 141.438 63.3398 141.711C62.7539 141.945 62.1484 142.18 61.5234 142.414C60.8984 142.609 60.2734 142.766 59.6484 142.883C59.0234 142.961 58.4766 142.98 58.0078 142.941C56.8359 143.371 55.6836 143.645 54.5508 143.762C53.457 143.918 52.168 143.84 50.6836 143.527C49.2773 143.723 47.9688 143.664 46.7578 143.352C45.5859 143.039 44.5312 142.551 43.5938 141.887C42.6953 141.184 41.8945 140.363 41.1914 139.426C40.5273 138.449 39.9805 137.434 39.5508 136.379C39.2383 134.152 39.3164 132.141 39.7852 130.344C40.2539 128.508 40.918 126.828 41.7773 125.305C42.6758 123.742 43.6914 122.316 44.8242 121.027C45.957 119.699 47.0508 118.41 48.1055 117.16C48.3398 117.238 48.5156 117.238 48.6328 117.16C48.7891 117.043 48.9258 116.906 49.043 116.75C49.1602 116.555 49.2773 116.379 49.3945 116.223C49.5508 116.066 49.7266 115.969 49.9219 115.93C50.1953 115.344 50.5859 114.914 51.0938 114.641C51.6406 114.328 52.0703 113.898 52.3828 113.352C52.7344 113.273 53.0273 113.156 53.2617 113C53.4961 112.844 53.7109 112.668 53.9062 112.473C54.1406 112.277 54.375 112.102 54.6094 111.945C54.8438 111.75 55.1172 111.613 55.4297 111.535V110.891C56.1328 110.578 56.6406 110.227 56.9531 109.836C57.3047 109.406 57.7148 108.898 58.1836 108.312C58.5352 108.273 58.8086 108.254 59.0039 108.254C59.2383 108.254 59.5703 108.215 60 108.137C60.3125 107.59 60.5859 107.18 60.8203 106.906C61.0938 106.633 61.4844 106.34 61.9922 106.027C62.4609 106.262 62.9688 106.418 63.5156 106.496C64.1016 106.574 64.6094 106.828 65.0391 107.258C65.0781 107.648 65.1953 107.961 65.3906 108.195C65.5859 108.391 65.8008 108.586 66.0352 108.781C66.2695 108.938 66.4844 109.113 66.6797 109.309C66.9141 109.504 67.0703 109.777 67.1484 110.129C67.3047 110.168 67.4023 110.148 67.4414 110.07C67.5195 109.992 67.6367 109.973 67.793 110.012C67.9102 110.559 68.0469 110.93 68.2031 111.125C68.3594 111.281 68.5156 111.613 68.6719 112.121C68.4766 112.512 68.3203 112.922 68.2031 113.352C68.125 113.742 67.8906 114.035 67.5 114.23C67.4609 114.504 67.5391 114.66 67.7344 114.699C67.9297 114.699 68.0469 114.797 68.0859 114.992C68.125 115.344 68.0664 115.598 67.9102 115.754C68.8477 117.277 69.6875 118.898 70.4297 120.617C71.1719 122.297 72.0117 123.898 72.9492 125.422ZM65.625 130.988C65.7812 130.559 65.9766 130.207 66.2109 129.934C66.4844 129.66 66.6406 129.25 66.6797 128.703C66.4844 128.391 66.3672 128.156 66.3281 128C66.2891 127.805 66.2695 127.512 66.2695 127.121C65.4102 125.91 64.668 124.621 64.043 123.254C63.418 121.848 62.7148 120.539 61.9336 119.328C61.8555 119.484 61.7188 119.641 61.5234 119.797C61.3281 119.953 61.1133 119.914 60.8789 119.68C60.8008 119.992 60.6641 120.227 60.4688 120.383C60.2734 120.5 60.0586 120.559 59.8242 120.559C59.5898 120.52 59.3359 120.461 59.0625 120.383C58.8281 120.266 58.6133 120.129 58.418 119.973C57.2852 120.871 56.1523 121.75 55.0195 122.609C53.8867 123.469 52.8711 124.465 51.9727 125.598C51.8164 125.676 51.7188 125.715 51.6797 125.715C51.6406 125.676 51.5234 125.695 51.3281 125.773C51.0156 126.516 50.625 127.199 50.1562 127.824C49.7266 128.41 49.2969 129.016 48.8672 129.641C48.4375 130.266 48.0664 130.93 47.7539 131.633C47.4414 132.336 47.2656 133.156 47.2266 134.094C47.8906 134.641 48.6719 134.973 49.5703 135.09C50.4688 135.207 51.3867 135.227 52.3242 135.148C53.3008 135.07 54.2383 134.953 55.1367 134.797C56.0742 134.602 56.9336 134.504 57.7148 134.504C59.3555 134.113 60.7617 133.605 61.9336 132.98C63.1055 132.316 64.3359 131.652 65.625 130.988ZM110.684 125.422C110.645 125.891 110.684 126.34 110.801 126.77C110.918 127.199 111.055 127.629 111.211 128.059C111.406 128.449 111.582 128.859 111.738 129.289C111.895 129.719 112.012 130.148 112.09 130.578C112.168 131.125 112.168 131.73 112.09 132.395C112.012 133.02 111.875 133.645 111.68 134.27C111.484 134.855 111.23 135.402 110.918 135.91C110.605 136.379 110.234 136.73 109.805 136.965C109.258 137.668 108.594 138.215 107.812 138.605C107.031 138.996 106.309 139.465 105.645 140.012C105.215 140.285 104.727 140.48 104.18 140.598C103.672 140.715 103.145 140.832 102.598 140.949C102.168 141.184 101.66 141.438 101.074 141.711C100.488 141.945 99.8828 142.18 99.2578 142.414C98.6328 142.609 98.0078 142.766 97.3828 142.883C96.7578 142.961 96.2109 142.98 95.7422 142.941C94.5703 143.371 93.418 143.645 92.2852 143.762C91.1914 143.918 89.9023 143.84 88.418 143.527C87.0117 143.723 85.7031 143.664 84.4922 143.352C83.3203 143.039 82.2656 142.551 81.3281 141.887C80.4297 141.184 79.6289 140.363 78.9258 139.426C78.2617 138.449 77.7148 137.434 77.2852 136.379C76.9727 134.152 77.0508 132.141 77.5195 130.344C77.9883 128.508 78.6523 126.828 79.5117 125.305C80.4102 123.742 81.4258 122.316 82.5586 121.027C83.6914 119.699 84.7852 118.41 85.8398 117.16C86.0742 117.238 86.25 117.238 86.3672 117.16C86.5234 117.043 86.6602 116.906 86.7773 116.75C86.8945 116.555 87.0117 116.379 87.1289 116.223C87.2852 116.066 87.4609 115.969 87.6562 115.93C87.9297 115.344 88.3203 114.914 88.8281 114.641C89.375 114.328 89.8047 113.898 90.1172 113.352C90.4688 113.273 90.7617 113.156 90.9961 113C91.2305 112.844 91.4453 112.668 91.6406 112.473C91.875 112.277 92.1094 112.102 92.3438 111.945C92.5781 111.75 92.8516 111.613 93.1641 111.535V110.891C93.8672 110.578 94.375 110.227 94.6875 109.836C95.0391 109.406 95.4492 108.898 95.918 108.312C96.2695 108.273 96.543 108.254 96.7383 108.254C96.9727 108.254 97.3047 108.215 97.7344 108.137C98.0469 107.59 98.3203 107.18 98.5547 106.906C98.8281 106.633 99.2188 106.34 99.7266 106.027C100.195 106.262 100.703 106.418 101.25 106.496C101.836 106.574 102.344 106.828 102.773 107.258C102.812 107.648 102.93 107.961 103.125 108.195C103.32 108.391 103.535 108.586 103.77 108.781C104.004 108.938 104.219 109.113 104.414 109.309C104.648 109.504 104.805 109.777 104.883 110.129C105.039 110.168 105.137 110.148 105.176 110.07C105.254 109.992 105.371 109.973 105.527 110.012C105.645 110.559 105.781 110.93 105.938 111.125C106.094 111.281 106.25 111.613 106.406 112.121C106.211 112.512 106.055 112.922 105.938 113.352C105.859 113.742 105.625 114.035 105.234 114.23C105.195 114.504 105.273 114.66 105.469 114.699C105.664 114.699 105.781 114.797 105.82 114.992C105.859 115.344 105.801 115.598 105.645 115.754C106.582 117.277 107.422 118.898 108.164 120.617C108.906 122.297 109.746 123.898 110.684 125.422ZM103.359 130.988C103.516 130.559 103.711 130.207 103.945 129.934C104.219 129.66 104.375 129.25 104.414 128.703C104.219 128.391 104.102 128.156 104.062 128C104.023 127.805 104.004 127.512 104.004 127.121C103.145 125.91 102.402 124.621 101.777 123.254C101.152 121.848 100.449 120.539 99.668 119.328C99.5898 119.484 99.4531 119.641 99.2578 119.797C99.0625 119.953 98.8477 119.914 98.6133 119.68C98.5352 119.992 98.3984 120.227 98.2031 120.383C98.0078 120.5 97.793 120.559 97.5586 120.559C97.3242 120.52 97.0703 120.461 96.7969 120.383C96.5625 120.266 96.3477 120.129 96.1523 119.973C95.0195 120.871 93.8867 121.75 92.7539 122.609C91.6211 123.469 90.6055 124.465 89.707 125.598C89.5508 125.676 89.4531 125.715 89.4141 125.715C89.375 125.676 89.2578 125.695 89.0625 125.773C88.75 126.516 88.3594 127.199 87.8906 127.824C87.4609 128.41 87.0312 129.016 86.6016 129.641C86.1719 130.266 85.8008 130.93 85.4883 131.633C85.1758 132.336 85 133.156 84.9609 134.094C85.625 134.641 86.4062 134.973 87.3047 135.09C88.2031 135.207 89.1211 135.227 90.0586 135.148C91.0352 135.07 91.9727 134.953 92.8711 134.797C93.8086 134.602 94.668 134.504 95.4492 134.504C97.0898 134.113 98.4961 133.605 99.668 132.98C100.84 132.316 102.07 131.652 103.359 130.988ZM154.805 141.945C154.414 142.141 154.043 142.316 153.691 142.473C153.379 142.629 153.008 142.707 152.578 142.707C151.055 141.574 150.254 139.602 150.176 136.789C150.137 133.977 150.742 130.402 151.992 126.066C152.188 125.949 152.285 125.715 152.285 125.363L151.758 124.777C151.602 124.777 151.445 124.797 151.289 124.836C151.172 124.875 151.074 125.012 150.996 125.246C149.98 125.988 148.867 126.77 147.656 127.59C146.445 128.371 145.176 129.113 143.848 129.816C142.559 130.48 141.23 131.027 139.863 131.457C138.535 131.887 137.227 132.102 135.938 132.102C132.656 132.102 130.195 130.441 128.555 127.121L128.086 126.242L127.617 127.004C127.5 127.16 127.324 127.492 127.09 128C126.855 128.469 126.621 129.016 126.387 129.641C126.152 130.266 125.938 130.91 125.742 131.574C125.586 132.199 125.527 132.746 125.566 133.215C125.215 133.566 124.844 133.977 124.453 134.445C124.062 134.914 123.77 135.441 123.574 136.027C123.496 136.34 123.535 136.633 123.691 136.906C123.613 137.258 123.438 137.531 123.164 137.727C123.008 137.922 122.832 138.117 122.637 138.312C122.48 138.469 122.344 138.645 122.227 138.84C122.148 139.035 122.09 139.23 122.051 139.426C122.051 139.621 122.031 139.816 121.992 140.012C121.992 140.285 121.953 140.539 121.875 140.773C121.211 142.141 120.684 143.02 120.293 143.41C119.902 143.84 119.375 144.055 118.711 144.055C118.398 144.055 117.891 143.996 117.188 143.879C116.68 143.332 116.211 142.59 115.781 141.652C115.391 140.676 115.078 139.641 114.844 138.547C114.648 137.453 114.551 136.359 114.551 135.266C114.59 134.133 114.785 133.156 115.137 132.336C115.137 132.297 115.293 131.906 115.605 131.164C115.918 130.422 116.309 129.465 116.777 128.293C117.285 127.121 117.852 125.832 118.477 124.426C119.102 122.98 119.727 121.594 120.352 120.266C120.977 118.898 121.562 117.648 122.109 116.516C122.695 115.383 123.184 114.523 123.574 113.938C123.887 113.469 124.16 113.039 124.395 112.648C124.668 112.219 124.922 111.809 125.156 111.418C125.859 110.207 126.523 109.211 127.148 108.43C127.812 107.609 128.77 106.965 130.02 106.496C130.879 106.848 131.504 107.258 131.895 107.727L132.012 108.371C132.168 108.762 132.402 108.957 132.715 108.957C133.145 109.074 133.496 109.191 133.77 109.309C134.082 109.387 134.414 109.465 134.766 109.543C135.039 109.855 135.293 110.227 135.527 110.656C135.84 111.125 136.133 111.594 136.406 112.062C136.719 112.492 136.953 112.941 137.109 113.41C137.305 113.84 137.402 114.289 137.402 114.758C137.441 115.227 137.363 115.715 137.168 116.223L137.227 116.809C137.422 117.16 137.461 117.648 137.344 118.273C137.305 118.547 137.285 118.84 137.285 119.152C137.285 119.426 137.324 119.738 137.402 120.09C138.105 120.637 138.73 120.91 139.277 120.91C139.902 120.91 140.469 120.773 140.977 120.5C141.523 120.188 142.031 119.875 142.5 119.562C142.812 119.328 143.125 119.133 143.438 118.977C143.75 118.781 144.062 118.664 144.375 118.625C145.078 117.961 145.703 117.375 146.25 116.867C146.836 116.359 147.441 115.852 148.066 115.344C149.238 114.406 150.371 113.391 151.465 112.297C152.559 111.203 153.438 109.836 154.102 108.195C154.492 107.961 154.902 107.844 155.332 107.844C155.762 107.844 156.211 107.941 156.68 108.137C157.148 108.332 157.598 108.527 158.027 108.723C158.145 108.801 158.242 108.859 158.32 108.898C158.438 108.938 158.535 108.977 158.613 109.016C158.613 109.406 158.77 109.738 159.082 110.012C159.238 110.129 159.336 110.207 159.375 110.246C159.414 110.285 159.473 110.324 159.551 110.363C160.137 110.676 160.508 110.988 160.664 111.301C160.938 112.199 161.426 112.883 162.129 113.352C162.051 113.742 162.051 114.113 162.129 114.465C162.246 114.777 162.383 115.109 162.539 115.461C162.578 115.578 162.617 115.695 162.656 115.812C162.695 115.93 162.754 116.066 162.832 116.223L161.719 116.105L161.895 117.219C161.973 117.766 161.914 118.371 161.719 119.035C161.562 119.699 161.367 120.227 161.133 120.617C161.172 121.633 161.191 122.434 161.191 123.02C161.23 123.566 161.211 124.094 161.133 124.602C161.055 125.07 160.938 125.52 160.781 125.949C160.664 126.379 160.488 126.848 160.254 127.355C160.41 129.855 160.117 132.141 159.375 134.211C158.672 136.242 157.93 138.156 157.148 139.953C157.07 140.148 156.973 140.344 156.855 140.539C156.777 140.734 156.699 140.93 156.621 141.125C156.27 141.242 155.957 141.379 155.684 141.535C155.41 141.652 155.117 141.789 154.805 141.945ZM190.781 137.902C189.648 137.043 188.711 135.969 187.969 134.68C187.266 133.391 186.699 132.023 186.27 130.578C185.879 129.133 185.605 127.648 185.449 126.125C185.332 124.562 185.293 123.078 185.332 121.672C185.684 120.617 186.113 119.66 186.621 118.801C187.129 117.902 187.695 117.062 188.32 116.281C188.945 115.461 189.59 114.699 190.254 113.996C190.957 113.254 191.641 112.512 192.305 111.77C192.539 111.77 192.754 111.828 192.949 111.945C193.105 111.516 193.34 111.145 193.652 110.832C193.965 110.52 194.297 110.246 194.648 110.012C195 109.738 195.352 109.484 195.703 109.25C196.055 108.977 196.348 108.664 196.582 108.312C197.559 108.078 198.418 107.746 199.16 107.316C199.941 106.887 200.684 106.418 201.387 105.91C202.09 105.402 202.812 104.934 203.555 104.504C204.297 104.074 205.156 103.742 206.133 103.508C206.484 103.117 206.914 102.785 207.422 102.512C207.969 102.238 208.496 101.984 209.004 101.75C209.551 101.516 210.059 101.262 210.527 100.988C211.035 100.715 211.445 100.344 211.758 99.875C211.992 100.188 212.324 100.305 212.754 100.227C213.184 100.109 213.574 99.9922 213.926 99.875C214.16 99.8359 214.355 99.875 214.512 99.9922C214.668 100.109 214.805 100.246 214.922 100.402C215.078 100.52 215.195 100.598 215.273 100.637C215.391 100.676 215.508 100.559 215.625 100.285C215.938 100.324 216.016 100.461 215.859 100.695C215.742 100.93 215.664 101.086 215.625 101.164C216.016 101.086 216.328 101.164 216.562 101.398C216.836 101.594 217.246 101.73 217.793 101.809C217.988 102.004 218.047 102.16 217.969 102.277C217.891 102.395 217.832 102.59 217.793 102.863C219.199 103.293 220.098 103.977 220.488 104.914C220.879 105.812 220.918 106.77 220.605 107.785C220.293 108.762 219.707 109.68 218.848 110.539C218.027 111.359 217.109 111.906 216.094 112.18C214.883 112.492 213.75 112.805 212.695 113.117C211.68 113.43 210.684 113.781 209.707 114.172C208.77 114.562 207.871 115.031 207.012 115.578C206.191 116.086 205.469 116.691 204.844 117.395C203.75 117.707 202.754 118.137 201.855 118.684C200.996 119.23 200.176 119.836 199.395 120.5C198.652 121.164 197.93 121.867 197.227 122.609C196.523 123.312 195.82 124.016 195.117 124.719C195.117 125.383 195 125.891 194.766 126.242C194.531 126.594 194.277 126.945 194.004 127.297C194.082 128.039 194.238 128.684 194.473 129.23C194.746 129.738 195.02 130.266 195.293 130.812C198.418 131.75 201.719 132.336 205.195 132.57C208.711 132.766 212.188 132.883 215.625 132.922C215.977 133.391 216.367 133.84 216.797 134.27C217.266 134.66 217.676 135.07 218.027 135.5C218.418 135.93 218.711 136.438 218.906 137.023C219.141 137.57 219.199 138.234 219.082 139.016C218.418 139.68 217.695 140.324 216.914 140.949C216.133 141.535 215.352 142.121 214.57 142.707C214.219 142.746 213.789 142.746 213.281 142.707C212.812 142.668 212.305 142.648 211.758 142.648C211.25 142.648 210.723 142.688 210.176 142.766C209.668 142.805 209.18 142.922 208.711 143.117C206.25 143.039 203.73 142.746 201.152 142.238C198.574 141.691 196.191 141.047 194.004 140.305C193.574 139.797 193.125 139.328 192.656 138.898C192.188 138.43 191.562 138.098 190.781 137.902ZM256.172 125.422C256.133 125.891 256.172 126.34 256.289 126.77C256.406 127.199 256.543 127.629 256.699 128.059C256.895 128.449 257.07 128.859 257.227 129.289C257.383 129.719 257.5 130.148 257.578 130.578C257.656 131.125 257.656 131.73 257.578 132.395C257.5 133.02 257.363 133.645 257.168 134.27C256.973 134.855 256.719 135.402 256.406 135.91C256.094 136.379 255.723 136.73 255.293 136.965C254.746 137.668 254.082 138.215 253.301 138.605C252.52 138.996 251.797 139.465 251.133 140.012C250.703 140.285 250.215 140.48 249.668 140.598C249.16 140.715 248.633 140.832 248.086 140.949C247.656 141.184 247.148 141.438 246.562 141.711C245.977 141.945 245.371 142.18 244.746 142.414C244.121 142.609 243.496 142.766 242.871 142.883C242.246 142.961 241.699 142.98 241.23 142.941C240.059 143.371 238.906 143.645 237.773 143.762C236.68 143.918 235.391 143.84 233.906 143.527C232.5 143.723 231.191 143.664 229.98 143.352C228.809 143.039 227.754 142.551 226.816 141.887C225.918 141.184 225.117 140.363 224.414 139.426C223.75 138.449 223.203 137.434 222.773 136.379C222.461 134.152 222.539 132.141 223.008 130.344C223.477 128.508 224.141 126.828 225 125.305C225.898 123.742 226.914 122.316 228.047 121.027C229.18 119.699 230.273 118.41 231.328 117.16C231.562 117.238 231.738 117.238 231.855 117.16C232.012 117.043 232.148 116.906 232.266 116.75C232.383 116.555 232.5 116.379 232.617 116.223C232.773 116.066 232.949 115.969 233.145 115.93C233.418 115.344 233.809 114.914 234.316 114.641C234.863 114.328 235.293 113.898 235.605 113.352C235.957 113.273 236.25 113.156 236.484 113C236.719 112.844 236.934 112.668 237.129 112.473C237.363 112.277 237.598 112.102 237.832 111.945C238.066 111.75 238.34 111.613 238.652 111.535V110.891C239.355 110.578 239.863 110.227 240.176 109.836C240.527 109.406 240.938 108.898 241.406 108.312C241.758 108.273 242.031 108.254 242.227 108.254C242.461 108.254 242.793 108.215 243.223 108.137C243.535 107.59 243.809 107.18 244.043 106.906C244.316 106.633 244.707 106.34 245.215 106.027C245.684 106.262 246.191 106.418 246.738 106.496C247.324 106.574 247.832 106.828 248.262 107.258C248.301 107.648 248.418 107.961 248.613 108.195C248.809 108.391 249.023 108.586 249.258 108.781C249.492 108.938 249.707 109.113 249.902 109.309C250.137 109.504 250.293 109.777 250.371 110.129C250.527 110.168 250.625 110.148 250.664 110.07C250.742 109.992 250.859 109.973 251.016 110.012C251.133 110.559 251.27 110.93 251.426 111.125C251.582 111.281 251.738 111.613 251.895 112.121C251.699 112.512 251.543 112.922 251.426 113.352C251.348 113.742 251.113 114.035 250.723 114.23C250.684 114.504 250.762 114.66 250.957 114.699C251.152 114.699 251.27 114.797 251.309 114.992C251.348 115.344 251.289 115.598 251.133 115.754C252.07 117.277 252.91 118.898 253.652 120.617C254.395 122.297 255.234 123.898 256.172 125.422ZM248.848 130.988C249.004 130.559 249.199 130.207 249.434 129.934C249.707 129.66 249.863 129.25 249.902 128.703C249.707 128.391 249.59 128.156 249.551 128C249.512 127.805 249.492 127.512 249.492 127.121C248.633 125.91 247.891 124.621 247.266 123.254C246.641 121.848 245.938 120.539 245.156 119.328C245.078 119.484 244.941 119.641 244.746 119.797C244.551 119.953 244.336 119.914 244.102 119.68C244.023 119.992 243.887 120.227 243.691 120.383C243.496 120.5 243.281 120.559 243.047 120.559C242.812 120.52 242.559 120.461 242.285 120.383C242.051 120.266 241.836 120.129 241.641 119.973C240.508 120.871 239.375 121.75 238.242 122.609C237.109 123.469 236.094 124.465 235.195 125.598C235.039 125.676 234.941 125.715 234.902 125.715C234.863 125.676 234.746 125.695 234.551 125.773C234.238 126.516 233.848 127.199 233.379 127.824C232.949 128.41 232.52 129.016 232.09 129.641C231.66 130.266 231.289 130.93 230.977 131.633C230.664 132.336 230.488 133.156 230.449 134.094C231.113 134.641 231.895 134.973 232.793 135.09C233.691 135.207 234.609 135.227 235.547 135.148C236.523 135.07 237.461 134.953 238.359 134.797C239.297 134.602 240.156 134.504 240.938 134.504C242.578 134.113 243.984 133.605 245.156 132.98C246.328 132.316 247.559 131.652 248.848 130.988ZM288.633 127.18C288.594 127.375 288.555 127.551 288.516 127.707C288.477 127.824 288.438 127.941 288.398 128.059C288.359 128.176 288.34 128.332 288.34 128.527C288.34 128.684 288.34 128.898 288.34 129.172C287.168 131.242 285.684 132.98 283.887 134.387C282.129 135.793 280.176 137.043 278.027 138.137C275.918 139.191 273.711 140.168 271.406 141.066C269.102 141.926 266.855 142.863 264.668 143.879C263.73 143.645 263.008 143.254 262.5 142.707C262.031 142.16 261.66 141.535 261.387 140.832C261.152 140.09 260.977 139.289 260.859 138.43C260.781 137.531 260.703 136.613 260.625 135.676C260.742 135.246 260.898 134.895 261.094 134.621C261.328 134.309 261.445 133.879 261.445 133.332C261.758 132.316 262.07 131.32 262.383 130.344C262.695 129.367 262.891 128.371 262.969 127.355C263.086 127.043 263.301 126.828 263.613 126.711C263.809 124.836 263.809 122.941 263.613 121.027C263.457 119.074 263.145 117.258 262.676 115.578C262.715 115.188 262.754 114.914 262.793 114.758C262.871 114.562 262.871 114.426 262.793 114.348C262.754 114.035 262.852 113.879 263.086 113.879C263.359 113.879 263.633 113.879 263.906 113.879C263.906 113.293 263.789 112.707 263.555 112.121C263.359 111.535 263.164 110.871 262.969 110.129C263.242 109.543 263.418 108.977 263.496 108.43C263.574 107.844 263.75 107.336 264.023 106.906C266.133 107.57 268.145 108.371 270.059 109.309C272.012 110.246 273.926 110.93 275.801 111.359C277.207 112.375 278.652 113.391 280.137 114.406C281.621 115.383 282.969 116.477 284.18 117.688C285.391 118.859 286.406 120.207 287.227 121.73C288.047 123.254 288.516 125.07 288.633 127.18ZM274.746 130.402C275.566 130.09 276.367 129.758 277.148 129.406C277.969 129.055 278.711 128.664 279.375 128.234C280.078 127.766 280.703 127.238 281.25 126.652C281.797 126.066 282.246 125.363 282.598 124.543C282.363 124.074 282.051 123.664 281.66 123.312C281.27 122.922 280.879 122.57 280.488 122.258C280.098 121.906 279.707 121.555 279.316 121.203C278.965 120.852 278.672 120.422 278.438 119.914C277.93 119.836 277.48 119.699 277.09 119.504C276.699 119.27 276.309 119.055 275.918 118.859C275.566 118.625 275.176 118.41 274.746 118.215C274.355 118.02 273.887 117.902 273.34 117.863C272.48 117.434 271.699 117.121 270.996 116.926C270.332 116.73 269.824 116.477 269.473 116.164C269.199 116.164 268.984 116.223 268.828 116.34C269.219 117.824 269.512 119.23 269.707 120.559C269.902 121.848 270 123.156 270 124.484C270.039 125.773 269.98 127.102 269.824 128.469C269.668 129.836 269.453 131.32 269.18 132.922C269.57 132.883 269.922 132.805 270.234 132.688C270.586 132.531 270.918 132.375 271.23 132.219C271.582 132.062 271.934 131.926 272.285 131.809C272.676 131.652 273.125 131.555 273.633 131.516C273.75 131.281 273.906 131.086 274.102 130.93C274.336 130.773 274.551 130.598 274.746 130.402ZM321.68 110.012C321.719 110.285 321.719 110.5 321.68 110.656C321.68 110.773 321.66 110.891 321.621 111.008C321.621 111.125 321.621 111.262 321.621 111.418C321.621 111.535 321.66 111.73 321.738 112.004C320.918 113.332 319.961 114.25 318.867 114.758C317.812 115.227 316.66 115.578 315.41 115.812C314.16 116.008 312.871 116.223 311.543 116.457C310.254 116.691 308.965 117.199 307.676 117.98C307.168 117.785 306.699 117.785 306.27 117.98C305.879 118.176 305.293 118.234 304.512 118.156C304.277 118.391 303.984 118.566 303.633 118.684C303.281 118.762 302.93 118.859 302.578 118.977C302.734 119.328 302.793 119.699 302.754 120.09C302.754 120.441 302.812 120.734 302.93 120.969C304.297 121.086 305.801 121.066 307.441 120.91C309.121 120.754 310.762 120.656 312.363 120.617C312.402 120.812 312.383 120.949 312.305 121.027C312.227 121.066 312.207 121.164 312.246 121.32C312.52 121.516 312.793 121.77 313.066 122.082C313.34 122.355 313.613 122.629 313.887 122.902C314.16 123.176 314.434 123.41 314.707 123.605C315.02 123.762 315.371 123.82 315.762 123.781C315.918 124.094 316.016 124.445 316.055 124.836C316.133 125.188 316.094 125.559 315.938 125.949C315.312 126.379 314.688 126.828 314.062 127.297C313.438 127.727 312.773 128.117 312.07 128.469C311.406 128.82 310.684 129.113 309.902 129.348C309.16 129.543 308.32 129.621 307.383 129.582C307.188 129.582 307.031 129.582 306.914 129.582C306.836 129.582 306.719 129.523 306.562 129.406C306.25 129.602 305.801 129.66 305.215 129.582C304.668 129.504 304.238 129.562 303.926 129.758C303.496 129.562 302.969 129.484 302.344 129.523C301.758 129.523 301.23 129.445 300.762 129.289C300.137 130.109 299.57 130.988 299.062 131.926C298.555 132.863 298.105 133.859 297.715 134.914C299.043 135.109 300.137 135.188 300.996 135.148C301.895 135.109 302.734 135.051 303.516 134.973C304.297 134.855 305.098 134.758 305.918 134.68C306.738 134.562 307.773 134.523 309.023 134.562C309.805 134.133 310.723 133.859 311.777 133.742C312.871 133.586 313.867 133.352 314.766 133.039C315.078 133.156 315.352 133.371 315.586 133.684C315.82 133.957 316.035 134.23 316.23 134.504C316.465 134.738 316.699 134.953 316.934 135.148C317.168 135.344 317.461 135.422 317.812 135.383C317.969 135.539 318.066 135.734 318.105 135.969C318.184 136.164 318.242 136.359 318.281 136.555C318.32 136.75 318.379 136.926 318.457 137.082C318.574 137.199 318.75 137.238 318.984 137.199C318.398 138.488 317.715 139.484 316.934 140.188C316.191 140.852 315.332 141.359 314.355 141.711C313.379 142.062 312.285 142.336 311.074 142.531C309.902 142.727 308.594 142.961 307.148 143.234C306.797 143.312 306.504 143.293 306.27 143.176C306.035 143.098 305.762 143.059 305.449 143.059C304.551 143.254 303.477 143.43 302.227 143.586C300.977 143.742 299.707 143.801 298.418 143.762C297.129 143.723 295.898 143.547 294.727 143.234C293.555 142.961 292.598 142.453 291.855 141.711C291.543 141.438 291.328 141.125 291.211 140.773C291.133 140.383 290.879 140.09 290.449 139.895C290.41 139.387 290.332 138.82 290.215 138.195C290.098 137.57 289.98 136.926 289.863 136.262C289.746 135.559 289.648 134.875 289.57 134.211C289.531 133.547 289.57 132.941 289.688 132.395C289.805 131.809 290.039 131.281 290.391 130.812C290.781 130.344 290.918 129.836 290.801 129.289C290.996 129.25 291.113 129.152 291.152 128.996C291.191 128.801 291.348 128.723 291.621 128.762C291.855 128.059 292.109 127.395 292.383 126.77C292.656 126.145 292.93 125.539 293.203 124.953C293.516 124.367 293.809 123.781 294.082 123.195C294.395 122.57 294.688 121.887 294.961 121.145C294.414 120.637 294.004 120.09 293.73 119.504C293.496 118.879 293.32 118.273 293.203 117.688C293.086 117.062 292.988 116.438 292.91 115.812C292.832 115.148 292.695 114.484 292.5 113.82C292.891 113.234 293.359 112.766 293.906 112.414C294.492 112.023 295.117 111.711 295.781 111.477C296.445 111.242 297.168 111.047 297.949 110.891C298.73 110.734 299.551 110.559 300.41 110.363C301.973 109.855 303.359 109.465 304.57 109.191C305.82 108.918 307.031 108.703 308.203 108.547C309.414 108.352 310.664 108.176 311.953 108.02C313.242 107.863 314.707 107.629 316.348 107.316C316.699 107.668 317.031 107.844 317.344 107.844C317.5 107.492 317.676 107.395 317.871 107.551C318.105 107.668 318.203 107.551 318.164 107.199C318.555 107.863 319.043 108.43 319.629 108.898C320.254 109.328 320.938 109.699 321.68 110.012Z" fill="white"/>
</svg>
