<svg width="332" height="141" viewBox="0 0 332 141" fill="none" xmlns="http://www.w3.org/2000/svg">
<mask id="mask0" mask-type="alpha" maskUnits="userSpaceOnUse" x="106" y="0" width="100" height="101">
<path d="M194.09 33.4753L205.993 4.41069e-05L175.843 15.3547L106.938 81.1672L130.122 100.897L194.09 33.4753Z" fill="#F8A339"/>
</mask>
<g mask="url(#mask0)">
<rect x="217.916" y="103.032" width="110.714" height="129.114" transform="rotate(179.328 217.916 103.032)" fill="#F8A339"/>
<path d="M220.599 42.7396L216.227 39.602L211.825 42.7248L208.108 38.7848L203.218 40.9901L200.29 36.3901L195.088 37.5982L193.056 32.5045L187.731 32.6718L186.667 27.2684L181.411 26.3888L181.355 20.8711L176.358 18.9765L177.31 13.5438L172.753 10.7025L174.68 5.55134L170.727 1.86614L173.56 -2.81747L170.354 -7.2134L173.989 -11.2601L171.647 -16.2079L175.953 -19.4715L174.558 -24.7923L179.38 -27.1548L178.984 -32.6563L184.147 -34.0323L184.763 -39.5156L190.081 -39.8554L191.687 -45.1225L196.968 -44.4138L199.506 -49.2742L204.559 -47.5426L207.938 -51.8207L212.579 -49.1288L216.676 -52.6699L220.739 -49.115L225.407 -51.7911L228.744 -47.5017L233.813 -49.2162L236.304 -44.3473L241.592 -45.0382L243.147 -39.7657L248.461 -39.408L249.024 -33.9226L254.174 -32.5292L253.724 -27.0291L258.522 -24.6503L257.076 -19.3343L261.35 -16.0563L258.96 -11.1165L262.555 -7.05753L259.307 -2.67252L262.094 2.02058L258.105 5.69237L259.982 10.85L255.397 13.6758L256.297 19.1116L251.282 20.9893L251.171 26.5068L245.907 27.3686L244.791 32.7682L239.467 32.583L237.385 37.6697L232.195 36.444L229.223 41.034L224.354 38.8123L220.599 42.7396Z" fill="#F9E5C7"/>
<rect width="13.4999" height="19.6831" transform="matrix(-0.690697 0.723144 -0.679484 -0.73369 215.544 2.26123)" fill="#483A3A"/>
</g>
<path d="M1.64062 112.961C1.44531 113 1.26953 112.863 1.11328 112.551C0.957031 112.199 0.78125 111.867 0.585938 111.555H1.23047C0.957031 110.695 0.878906 109.914 0.996094 109.211C1.15234 108.469 1.32812 107.766 1.52344 107.102C1.71875 106.398 1.875 105.734 1.99219 105.109C2.14844 104.445 2.08984 103.762 1.81641 103.059C2.01172 103.176 2.14844 103.137 2.22656 102.941C2.34375 102.707 2.42188 102.434 2.46094 102.121C2.53906 101.77 2.55859 101.418 2.51953 101.066C2.51953 100.676 2.5 100.363 2.46094 100.129C2.96875 98.918 3.35938 97.668 3.63281 96.3789C3.94531 95.0898 4.21875 93.8203 4.45312 92.5703C4.6875 91.2812 4.94141 90.0508 5.21484 88.8789C5.52734 87.668 5.91797 86.5352 6.38672 85.4805C6.93359 85.4023 7.5 85.4805 8.08594 85.7148C8.71094 85.9102 9.12109 86.1641 9.31641 86.4766C10.5273 85.5391 11.6016 84.4062 12.5391 83.0781C13.4766 81.75 14.4141 80.4609 15.3516 79.2109C16.3281 77.9219 17.4219 76.7891 18.6328 75.8125C19.8438 74.8359 21.3477 74.25 23.1445 74.0547C24.082 74.7188 25.1367 75.4414 26.3086 76.2227C27.4805 76.9648 28.4375 77.9023 29.1797 79.0352C29.4922 79.2305 29.7852 79.4453 30.0586 79.6797C30.3711 79.875 30.6836 80.0703 30.9961 80.2656V81.1445C31.543 81.6523 31.9922 82.2578 32.3438 82.9609C32.7344 83.625 33.0664 84.3477 33.3398 85.1289C33.6523 85.8711 33.9453 86.6328 34.2188 87.4141C34.4922 88.1953 34.8047 88.918 35.1562 89.582C35.0781 89.8164 35.0391 90.0312 35.0391 90.2266C35.0781 90.3828 35.1172 90.5586 35.1562 90.7539C35.2344 90.9102 35.293 91.1055 35.332 91.3398C35.3711 91.5352 35.3906 91.7891 35.3906 92.1016C35.2344 94.1719 34.5508 95.8516 33.3398 97.1406C32.168 98.3906 30.7227 99.4258 29.0039 100.246C27.3242 101.027 25.5273 101.711 23.6133 102.297C21.6992 102.844 19.9609 103.449 18.3984 104.113C18.3984 104.27 18.4766 104.348 18.6328 104.348C18.8281 104.348 18.8867 104.465 18.8086 104.699C19.9805 105.402 20.8789 105.969 21.5039 106.398C22.168 106.828 22.7734 107.199 23.3203 107.512C23.9062 107.785 24.5312 108.02 25.1953 108.215C25.8984 108.41 26.8555 108.645 28.0664 108.918C29.2773 109.191 30.2148 109.426 30.8789 109.621C31.582 109.777 32.207 109.914 32.7539 110.031C33.3008 110.109 33.8867 110.188 34.5117 110.266C35.1367 110.344 35.9766 110.441 37.0312 110.559C37.4609 110.988 37.8125 111.496 38.0859 112.082C38.3594 112.668 38.5547 113.254 38.6719 113.84C38.7891 114.426 38.8086 114.992 38.7305 115.539C38.6914 116.047 38.5352 116.457 38.2617 116.77C38.3008 116.926 38.3984 117.004 38.5547 117.004C38.75 116.965 38.9453 116.965 39.1406 117.004C38.8672 117.199 38.6328 117.434 38.4375 117.707C38.2422 117.98 38.0469 118.254 37.8516 118.527C37.6562 118.801 37.4219 119.055 37.1484 119.289C36.9141 119.523 36.6016 119.66 36.2109 119.699C34.8047 120.246 33.0078 120.266 30.8203 119.758C28.6328 119.25 25.8398 118.352 22.4414 117.062C20.7617 116.438 19.3945 115.871 18.3398 115.363C17.2852 114.855 16.3672 114.367 15.5859 113.898C14.8047 113.391 14.082 112.863 13.418 112.316C12.7539 111.73 11.9922 111.047 11.1328 110.266C11.0156 110.305 10.9375 110.383 10.8984 110.5C10.8984 110.617 10.8398 110.695 10.7227 110.734C10.5273 112.297 10.2148 113.566 9.78516 114.543C9.39453 115.52 8.80859 116.516 8.02734 117.531C7.40234 117.414 6.97266 117.473 6.73828 117.707C6.54297 117.941 6.28906 118.156 5.97656 118.352C5.58594 118.43 5.29297 118.41 5.09766 118.293C4.90234 118.215 4.72656 118.117 4.57031 118C4.41406 117.883 4.23828 117.766 4.04297 117.648C3.84766 117.531 3.53516 117.492 3.10547 117.531C2.98828 117.18 2.87109 116.848 2.75391 116.535C2.63672 116.184 2.32422 116.027 1.81641 116.066C1.93359 115.715 1.97266 115.422 1.93359 115.188C1.89453 114.914 1.83594 114.68 1.75781 114.484C1.67969 114.25 1.60156 114.016 1.52344 113.781C1.48438 113.547 1.52344 113.273 1.64062 112.961ZM21.2109 86.1836C20.7031 86.9258 20.1367 87.6094 19.5117 88.2344C18.8867 88.8203 18.2617 89.4453 17.6367 90.1094C17.0508 90.7344 16.5234 91.4375 16.0547 92.2188C15.5859 92.9609 15.2539 93.8594 15.0586 94.9141C16.6992 94.7188 18.418 94.2695 20.2148 93.5664C22.0117 92.8242 23.7109 92.1211 25.3125 91.457C25.1172 90.0117 24.6094 88.8594 23.7891 88C22.9688 87.1016 22.1094 86.4961 21.2109 86.1836ZM72.9492 100.422C72.9102 100.891 72.9492 101.34 73.0664 101.77C73.1836 102.199 73.3203 102.629 73.4766 103.059C73.6719 103.449 73.8477 103.859 74.0039 104.289C74.1602 104.719 74.2773 105.148 74.3555 105.578C74.4336 106.125 74.4336 106.73 74.3555 107.395C74.2773 108.02 74.1406 108.645 73.9453 109.27C73.75 109.855 73.4961 110.402 73.1836 110.91C72.8711 111.379 72.5 111.73 72.0703 111.965C71.5234 112.668 70.8594 113.215 70.0781 113.605C69.2969 113.996 68.5742 114.465 67.9102 115.012C67.4805 115.285 66.9922 115.48 66.4453 115.598C65.9375 115.715 65.4102 115.832 64.8633 115.949C64.4336 116.184 63.9258 116.438 63.3398 116.711C62.7539 116.945 62.1484 117.18 61.5234 117.414C60.8984 117.609 60.2734 117.766 59.6484 117.883C59.0234 117.961 58.4766 117.98 58.0078 117.941C56.8359 118.371 55.6836 118.645 54.5508 118.762C53.457 118.918 52.168 118.84 50.6836 118.527C49.2773 118.723 47.9688 118.664 46.7578 118.352C45.5859 118.039 44.5312 117.551 43.5938 116.887C42.6953 116.184 41.8945 115.363 41.1914 114.426C40.5273 113.449 39.9805 112.434 39.5508 111.379C39.2383 109.152 39.3164 107.141 39.7852 105.344C40.2539 103.508 40.918 101.828 41.7773 100.305C42.6758 98.7422 43.6914 97.3164 44.8242 96.0273C45.957 94.6992 47.0508 93.4102 48.1055 92.1602C48.3398 92.2383 48.5156 92.2383 48.6328 92.1602C48.7891 92.043 48.9258 91.9062 49.043 91.75C49.1602 91.5547 49.2773 91.3789 49.3945 91.2227C49.5508 91.0664 49.7266 90.9688 49.9219 90.9297C50.1953 90.3438 50.5859 89.9141 51.0938 89.6406C51.6406 89.3281 52.0703 88.8984 52.3828 88.3516C52.7344 88.2734 53.0273 88.1562 53.2617 88C53.4961 87.8438 53.7109 87.668 53.9062 87.4727C54.1406 87.2773 54.375 87.1016 54.6094 86.9453C54.8438 86.75 55.1172 86.6133 55.4297 86.5352V85.8906C56.1328 85.5781 56.6406 85.2266 56.9531 84.8359C57.3047 84.4062 57.7148 83.8984 58.1836 83.3125C58.5352 83.2734 58.8086 83.2539 59.0039 83.2539C59.2383 83.2539 59.5703 83.2148 60 83.1367C60.3125 82.5898 60.5859 82.1797 60.8203 81.9062C61.0938 81.6328 61.4844 81.3398 61.9922 81.0273C62.4609 81.2617 62.9688 81.418 63.5156 81.4961C64.1016 81.5742 64.6094 81.8281 65.0391 82.2578C65.0781 82.6484 65.1953 82.9609 65.3906 83.1953C65.5859 83.3906 65.8008 83.5859 66.0352 83.7812C66.2695 83.9375 66.4844 84.1133 66.6797 84.3086C66.9141 84.5039 67.0703 84.7773 67.1484 85.1289C67.3047 85.168 67.4023 85.1484 67.4414 85.0703C67.5195 84.9922 67.6367 84.9727 67.793 85.0117C67.9102 85.5586 68.0469 85.9297 68.2031 86.125C68.3594 86.2812 68.5156 86.6133 68.6719 87.1211C68.4766 87.5117 68.3203 87.9219 68.2031 88.3516C68.125 88.7422 67.8906 89.0352 67.5 89.2305C67.4609 89.5039 67.5391 89.6602 67.7344 89.6992C67.9297 89.6992 68.0469 89.7969 68.0859 89.9922C68.125 90.3438 68.0664 90.5977 67.9102 90.7539C68.8477 92.2773 69.6875 93.8984 70.4297 95.6172C71.1719 97.2969 72.0117 98.8984 72.9492 100.422ZM65.625 105.988C65.7812 105.559 65.9766 105.207 66.2109 104.934C66.4844 104.66 66.6406 104.25 66.6797 103.703C66.4844 103.391 66.3672 103.156 66.3281 103C66.2891 102.805 66.2695 102.512 66.2695 102.121C65.4102 100.91 64.668 99.6211 64.043 98.2539C63.418 96.8477 62.7148 95.5391 61.9336 94.3281C61.8555 94.4844 61.7188 94.6406 61.5234 94.7969C61.3281 94.9531 61.1133 94.9141 60.8789 94.6797C60.8008 94.9922 60.6641 95.2266 60.4688 95.3828C60.2734 95.5 60.0586 95.5586 59.8242 95.5586C59.5898 95.5195 59.3359 95.4609 59.0625 95.3828C58.8281 95.2656 58.6133 95.1289 58.418 94.9727C57.2852 95.8711 56.1523 96.75 55.0195 97.6094C53.8867 98.4688 52.8711 99.4648 51.9727 100.598C51.8164 100.676 51.7188 100.715 51.6797 100.715C51.6406 100.676 51.5234 100.695 51.3281 100.773C51.0156 101.516 50.625 102.199 50.1562 102.824C49.7266 103.41 49.2969 104.016 48.8672 104.641C48.4375 105.266 48.0664 105.93 47.7539 106.633C47.4414 107.336 47.2656 108.156 47.2266 109.094C47.8906 109.641 48.6719 109.973 49.5703 110.09C50.4688 110.207 51.3867 110.227 52.3242 110.148C53.3008 110.07 54.2383 109.953 55.1367 109.797C56.0742 109.602 56.9336 109.504 57.7148 109.504C59.3555 109.113 60.7617 108.605 61.9336 107.98C63.1055 107.316 64.3359 106.652 65.625 105.988ZM110.684 100.422C110.645 100.891 110.684 101.34 110.801 101.77C110.918 102.199 111.055 102.629 111.211 103.059C111.406 103.449 111.582 103.859 111.738 104.289C111.895 104.719 112.012 105.148 112.09 105.578C112.168 106.125 112.168 106.73 112.09 107.395C112.012 108.02 111.875 108.645 111.68 109.27C111.484 109.855 111.23 110.402 110.918 110.91C110.605 111.379 110.234 111.73 109.805 111.965C109.258 112.668 108.594 113.215 107.812 113.605C107.031 113.996 106.309 114.465 105.645 115.012C105.215 115.285 104.727 115.48 104.18 115.598C103.672 115.715 103.145 115.832 102.598 115.949C102.168 116.184 101.66 116.438 101.074 116.711C100.488 116.945 99.8828 117.18 99.2578 117.414C98.6328 117.609 98.0078 117.766 97.3828 117.883C96.7578 117.961 96.2109 117.98 95.7422 117.941C94.5703 118.371 93.418 118.645 92.2852 118.762C91.1914 118.918 89.9023 118.84 88.418 118.527C87.0117 118.723 85.7031 118.664 84.4922 118.352C83.3203 118.039 82.2656 117.551 81.3281 116.887C80.4297 116.184 79.6289 115.363 78.9258 114.426C78.2617 113.449 77.7148 112.434 77.2852 111.379C76.9727 109.152 77.0508 107.141 77.5195 105.344C77.9883 103.508 78.6523 101.828 79.5117 100.305C80.4102 98.7422 81.4258 97.3164 82.5586 96.0273C83.6914 94.6992 84.7852 93.4102 85.8398 92.1602C86.0742 92.2383 86.25 92.2383 86.3672 92.1602C86.5234 92.043 86.6602 91.9062 86.7773 91.75C86.8945 91.5547 87.0117 91.3789 87.1289 91.2227C87.2852 91.0664 87.4609 90.9688 87.6562 90.9297C87.9297 90.3438 88.3203 89.9141 88.8281 89.6406C89.375 89.3281 89.8047 88.8984 90.1172 88.3516C90.4688 88.2734 90.7617 88.1562 90.9961 88C91.2305 87.8438 91.4453 87.668 91.6406 87.4727C91.875 87.2773 92.1094 87.1016 92.3438 86.9453C92.5781 86.75 92.8516 86.6133 93.1641 86.5352V85.8906C93.8672 85.5781 94.375 85.2266 94.6875 84.8359C95.0391 84.4062 95.4492 83.8984 95.918 83.3125C96.2695 83.2734 96.543 83.2539 96.7383 83.2539C96.9727 83.2539 97.3047 83.2148 97.7344 83.1367C98.0469 82.5898 98.3203 82.1797 98.5547 81.9062C98.8281 81.6328 99.2188 81.3398 99.7266 81.0273C100.195 81.2617 100.703 81.418 101.25 81.4961C101.836 81.5742 102.344 81.8281 102.773 82.2578C102.812 82.6484 102.93 82.9609 103.125 83.1953C103.32 83.3906 103.535 83.5859 103.77 83.7812C104.004 83.9375 104.219 84.1133 104.414 84.3086C104.648 84.5039 104.805 84.7773 104.883 85.1289C105.039 85.168 105.137 85.1484 105.176 85.0703C105.254 84.9922 105.371 84.9727 105.527 85.0117C105.645 85.5586 105.781 85.9297 105.938 86.125C106.094 86.2812 106.25 86.6133 106.406 87.1211C106.211 87.5117 106.055 87.9219 105.938 88.3516C105.859 88.7422 105.625 89.0352 105.234 89.2305C105.195 89.5039 105.273 89.6602 105.469 89.6992C105.664 89.6992 105.781 89.7969 105.82 89.9922C105.859 90.3438 105.801 90.5977 105.645 90.7539C106.582 92.2773 107.422 93.8984 108.164 95.6172C108.906 97.2969 109.746 98.8984 110.684 100.422ZM103.359 105.988C103.516 105.559 103.711 105.207 103.945 104.934C104.219 104.66 104.375 104.25 104.414 103.703C104.219 103.391 104.102 103.156 104.062 103C104.023 102.805 104.004 102.512 104.004 102.121C103.145 100.91 102.402 99.6211 101.777 98.2539C101.152 96.8477 100.449 95.5391 99.668 94.3281C99.5898 94.4844 99.4531 94.6406 99.2578 94.7969C99.0625 94.9531 98.8477 94.9141 98.6133 94.6797C98.5352 94.9922 98.3984 95.2266 98.2031 95.3828C98.0078 95.5 97.793 95.5586 97.5586 95.5586C97.3242 95.5195 97.0703 95.4609 96.7969 95.3828C96.5625 95.2656 96.3477 95.1289 96.1523 94.9727C95.0195 95.8711 93.8867 96.75 92.7539 97.6094C91.6211 98.4688 90.6055 99.4648 89.707 100.598C89.5508 100.676 89.4531 100.715 89.4141 100.715C89.375 100.676 89.2578 100.695 89.0625 100.773C88.75 101.516 88.3594 102.199 87.8906 102.824C87.4609 103.41 87.0312 104.016 86.6016 104.641C86.1719 105.266 85.8008 105.93 85.4883 106.633C85.1758 107.336 85 108.156 84.9609 109.094C85.625 109.641 86.4062 109.973 87.3047 110.09C88.2031 110.207 89.1211 110.227 90.0586 110.148C91.0352 110.07 91.9727 109.953 92.8711 109.797C93.8086 109.602 94.668 109.504 95.4492 109.504C97.0898 109.113 98.4961 108.605 99.668 107.98C100.84 107.316 102.07 106.652 103.359 105.988ZM154.805 116.945C154.414 117.141 154.043 117.316 153.691 117.473C153.379 117.629 153.008 117.707 152.578 117.707C151.055 116.574 150.254 114.602 150.176 111.789C150.137 108.977 150.742 105.402 151.992 101.066C152.188 100.949 152.285 100.715 152.285 100.363L151.758 99.7773C151.602 99.7773 151.445 99.7969 151.289 99.8359C151.172 99.875 151.074 100.012 150.996 100.246C149.98 100.988 148.867 101.77 147.656 102.59C146.445 103.371 145.176 104.113 143.848 104.816C142.559 105.48 141.23 106.027 139.863 106.457C138.535 106.887 137.227 107.102 135.938 107.102C132.656 107.102 130.195 105.441 128.555 102.121L128.086 101.242L127.617 102.004C127.5 102.16 127.324 102.492 127.09 103C126.855 103.469 126.621 104.016 126.387 104.641C126.152 105.266 125.938 105.91 125.742 106.574C125.586 107.199 125.527 107.746 125.566 108.215C125.215 108.566 124.844 108.977 124.453 109.445C124.062 109.914 123.77 110.441 123.574 111.027C123.496 111.34 123.535 111.633 123.691 111.906C123.613 112.258 123.438 112.531 123.164 112.727C123.008 112.922 122.832 113.117 122.637 113.312C122.48 113.469 122.344 113.645 122.227 113.84C122.148 114.035 122.09 114.23 122.051 114.426C122.051 114.621 122.031 114.816 121.992 115.012C121.992 115.285 121.953 115.539 121.875 115.773C121.211 117.141 120.684 118.02 120.293 118.41C119.902 118.84 119.375 119.055 118.711 119.055C118.398 119.055 117.891 118.996 117.188 118.879C116.68 118.332 116.211 117.59 115.781 116.652C115.391 115.676 115.078 114.641 114.844 113.547C114.648 112.453 114.551 111.359 114.551 110.266C114.59 109.133 114.785 108.156 115.137 107.336C115.137 107.297 115.293 106.906 115.605 106.164C115.918 105.422 116.309 104.465 116.777 103.293C117.285 102.121 117.852 100.832 118.477 99.4258C119.102 97.9805 119.727 96.5938 120.352 95.2656C120.977 93.8984 121.562 92.6484 122.109 91.5156C122.695 90.3828 123.184 89.5234 123.574 88.9375C123.887 88.4688 124.16 88.0391 124.395 87.6484C124.668 87.2188 124.922 86.8086 125.156 86.418C125.859 85.207 126.523 84.2109 127.148 83.4297C127.812 82.6094 128.77 81.9648 130.02 81.4961C130.879 81.8477 131.504 82.2578 131.895 82.7266L132.012 83.3711C132.168 83.7617 132.402 83.957 132.715 83.957C133.145 84.0742 133.496 84.1914 133.77 84.3086C134.082 84.3867 134.414 84.4648 134.766 84.543C135.039 84.8555 135.293 85.2266 135.527 85.6562C135.84 86.125 136.133 86.5938 136.406 87.0625C136.719 87.4922 136.953 87.9414 137.109 88.4102C137.305 88.8398 137.402 89.2891 137.402 89.7578C137.441 90.2266 137.363 90.7148 137.168 91.2227L137.227 91.8086C137.422 92.1602 137.461 92.6484 137.344 93.2734C137.305 93.5469 137.285 93.8398 137.285 94.1523C137.285 94.4258 137.324 94.7383 137.402 95.0898C138.105 95.6367 138.73 95.9102 139.277 95.9102C139.902 95.9102 140.469 95.7734 140.977 95.5C141.523 95.1875 142.031 94.875 142.5 94.5625C142.812 94.3281 143.125 94.1328 143.438 93.9766C143.75 93.7812 144.062 93.6641 144.375 93.625C145.078 92.9609 145.703 92.375 146.25 91.8672C146.836 91.3594 147.441 90.8516 148.066 90.3438C149.238 89.4062 150.371 88.3906 151.465 87.2969C152.559 86.2031 153.438 84.8359 154.102 83.1953C154.492 82.9609 154.902 82.8438 155.332 82.8438C155.762 82.8438 156.211 82.9414 156.68 83.1367C157.148 83.332 157.598 83.5273 158.027 83.7227C158.145 83.8008 158.242 83.8594 158.32 83.8984C158.438 83.9375 158.535 83.9766 158.613 84.0156C158.613 84.4062 158.77 84.7383 159.082 85.0117C159.238 85.1289 159.336 85.207 159.375 85.2461C159.414 85.2852 159.473 85.3242 159.551 85.3633C160.137 85.6758 160.508 85.9883 160.664 86.3008C160.938 87.1992 161.426 87.8828 162.129 88.3516C162.051 88.7422 162.051 89.1133 162.129 89.4648C162.246 89.7773 162.383 90.1094 162.539 90.4609C162.578 90.5781 162.617 90.6953 162.656 90.8125C162.695 90.9297 162.754 91.0664 162.832 91.2227L161.719 91.1055L161.895 92.2188C161.973 92.7656 161.914 93.3711 161.719 94.0352C161.562 94.6992 161.367 95.2266 161.133 95.6172C161.172 96.6328 161.191 97.4336 161.191 98.0195C161.23 98.5664 161.211 99.0938 161.133 99.6016C161.055 100.07 160.938 100.52 160.781 100.949C160.664 101.379 160.488 101.848 160.254 102.355C160.41 104.855 160.117 107.141 159.375 109.211C158.672 111.242 157.93 113.156 157.148 114.953C157.07 115.148 156.973 115.344 156.855 115.539C156.777 115.734 156.699 115.93 156.621 116.125C156.27 116.242 155.957 116.379 155.684 116.535C155.41 116.652 155.117 116.789 154.805 116.945ZM190.781 112.902C189.648 112.043 188.711 110.969 187.969 109.68C187.266 108.391 186.699 107.023 186.27 105.578C185.879 104.133 185.605 102.648 185.449 101.125C185.332 99.5625 185.293 98.0781 185.332 96.6719C185.684 95.6172 186.113 94.6602 186.621 93.8008C187.129 92.9023 187.695 92.0625 188.32 91.2812C188.945 90.4609 189.59 89.6992 190.254 88.9961C190.957 88.2539 191.641 87.5117 192.305 86.7695C192.539 86.7695 192.754 86.8281 192.949 86.9453C193.105 86.5156 193.34 86.1445 193.652 85.832C193.965 85.5195 194.297 85.2461 194.648 85.0117C195 84.7383 195.352 84.4844 195.703 84.25C196.055 83.9766 196.348 83.6641 196.582 83.3125C197.559 83.0781 198.418 82.7461 199.16 82.3164C199.941 81.8867 200.684 81.418 201.387 80.9102C202.09 80.4023 202.812 79.9336 203.555 79.5039C204.297 79.0742 205.156 78.7422 206.133 78.5078C206.484 78.1172 206.914 77.7852 207.422 77.5117C207.969 77.2383 208.496 76.9844 209.004 76.75C209.551 76.5156 210.059 76.2617 210.527 75.9883C211.035 75.7148 211.445 75.3438 211.758 74.875C211.992 75.1875 212.324 75.3047 212.754 75.2266C213.184 75.1094 213.574 74.9922 213.926 74.875C214.16 74.8359 214.355 74.875 214.512 74.9922C214.668 75.1094 214.805 75.2461 214.922 75.4023C215.078 75.5195 215.195 75.5977 215.273 75.6367C215.391 75.6758 215.508 75.5586 215.625 75.2852C215.938 75.3242 216.016 75.4609 215.859 75.6953C215.742 75.9297 215.664 76.0859 215.625 76.1641C216.016 76.0859 216.328 76.1641 216.562 76.3984C216.836 76.5938 217.246 76.7305 217.793 76.8086C217.988 77.0039 218.047 77.1602 217.969 77.2773C217.891 77.3945 217.832 77.5898 217.793 77.8633C219.199 78.293 220.098 78.9766 220.488 79.9141C220.879 80.8125 220.918 81.7695 220.605 82.7852C220.293 83.7617 219.707 84.6797 218.848 85.5391C218.027 86.3594 217.109 86.9062 216.094 87.1797C214.883 87.4922 213.75 87.8047 212.695 88.1172C211.68 88.4297 210.684 88.7812 209.707 89.1719C208.77 89.5625 207.871 90.0312 207.012 90.5781C206.191 91.0859 205.469 91.6914 204.844 92.3945C203.75 92.707 202.754 93.1367 201.855 93.6836C200.996 94.2305 200.176 94.8359 199.395 95.5C198.652 96.1641 197.93 96.8672 197.227 97.6094C196.523 98.3125 195.82 99.0156 195.117 99.7188C195.117 100.383 195 100.891 194.766 101.242C194.531 101.594 194.277 101.945 194.004 102.297C194.082 103.039 194.238 103.684 194.473 104.23C194.746 104.738 195.02 105.266 195.293 105.812C198.418 106.75 201.719 107.336 205.195 107.57C208.711 107.766 212.188 107.883 215.625 107.922C215.977 108.391 216.367 108.84 216.797 109.27C217.266 109.66 217.676 110.07 218.027 110.5C218.418 110.93 218.711 111.438 218.906 112.023C219.141 112.57 219.199 113.234 219.082 114.016C218.418 114.68 217.695 115.324 216.914 115.949C216.133 116.535 215.352 117.121 214.57 117.707C214.219 117.746 213.789 117.746 213.281 117.707C212.812 117.668 212.305 117.648 211.758 117.648C211.25 117.648 210.723 117.688 210.176 117.766C209.668 117.805 209.18 117.922 208.711 118.117C206.25 118.039 203.73 117.746 201.152 117.238C198.574 116.691 196.191 116.047 194.004 115.305C193.574 114.797 193.125 114.328 192.656 113.898C192.188 113.43 191.562 113.098 190.781 112.902ZM256.172 100.422C256.133 100.891 256.172 101.34 256.289 101.77C256.406 102.199 256.543 102.629 256.699 103.059C256.895 103.449 257.07 103.859 257.227 104.289C257.383 104.719 257.5 105.148 257.578 105.578C257.656 106.125 257.656 106.73 257.578 107.395C257.5 108.02 257.363 108.645 257.168 109.27C256.973 109.855 256.719 110.402 256.406 110.91C256.094 111.379 255.723 111.73 255.293 111.965C254.746 112.668 254.082 113.215 253.301 113.605C252.52 113.996 251.797 114.465 251.133 115.012C250.703 115.285 250.215 115.48 249.668 115.598C249.16 115.715 248.633 115.832 248.086 115.949C247.656 116.184 247.148 116.438 246.562 116.711C245.977 116.945 245.371 117.18 244.746 117.414C244.121 117.609 243.496 117.766 242.871 117.883C242.246 117.961 241.699 117.98 241.23 117.941C240.059 118.371 238.906 118.645 237.773 118.762C236.68 118.918 235.391 118.84 233.906 118.527C232.5 118.723 231.191 118.664 229.98 118.352C228.809 118.039 227.754 117.551 226.816 116.887C225.918 116.184 225.117 115.363 224.414 114.426C223.75 113.449 223.203 112.434 222.773 111.379C222.461 109.152 222.539 107.141 223.008 105.344C223.477 103.508 224.141 101.828 225 100.305C225.898 98.7422 226.914 97.3164 228.047 96.0273C229.18 94.6992 230.273 93.4102 231.328 92.1602C231.562 92.2383 231.738 92.2383 231.855 92.1602C232.012 92.043 232.148 91.9062 232.266 91.75C232.383 91.5547 232.5 91.3789 232.617 91.2227C232.773 91.0664 232.949 90.9688 233.145 90.9297C233.418 90.3438 233.809 89.9141 234.316 89.6406C234.863 89.3281 235.293 88.8984 235.605 88.3516C235.957 88.2734 236.25 88.1562 236.484 88C236.719 87.8438 236.934 87.668 237.129 87.4727C237.363 87.2773 237.598 87.1016 237.832 86.9453C238.066 86.75 238.34 86.6133 238.652 86.5352V85.8906C239.355 85.5781 239.863 85.2266 240.176 84.8359C240.527 84.4062 240.938 83.8984 241.406 83.3125C241.758 83.2734 242.031 83.2539 242.227 83.2539C242.461 83.2539 242.793 83.2148 243.223 83.1367C243.535 82.5898 243.809 82.1797 244.043 81.9062C244.316 81.6328 244.707 81.3398 245.215 81.0273C245.684 81.2617 246.191 81.418 246.738 81.4961C247.324 81.5742 247.832 81.8281 248.262 82.2578C248.301 82.6484 248.418 82.9609 248.613 83.1953C248.809 83.3906 249.023 83.5859 249.258 83.7812C249.492 83.9375 249.707 84.1133 249.902 84.3086C250.137 84.5039 250.293 84.7773 250.371 85.1289C250.527 85.168 250.625 85.1484 250.664 85.0703C250.742 84.9922 250.859 84.9727 251.016 85.0117C251.133 85.5586 251.27 85.9297 251.426 86.125C251.582 86.2812 251.738 86.6133 251.895 87.1211C251.699 87.5117 251.543 87.9219 251.426 88.3516C251.348 88.7422 251.113 89.0352 250.723 89.2305C250.684 89.5039 250.762 89.6602 250.957 89.6992C251.152 89.6992 251.27 89.7969 251.309 89.9922C251.348 90.3438 251.289 90.5977 251.133 90.7539C252.07 92.2773 252.91 93.8984 253.652 95.6172C254.395 97.2969 255.234 98.8984 256.172 100.422ZM248.848 105.988C249.004 105.559 249.199 105.207 249.434 104.934C249.707 104.66 249.863 104.25 249.902 103.703C249.707 103.391 249.59 103.156 249.551 103C249.512 102.805 249.492 102.512 249.492 102.121C248.633 100.91 247.891 99.6211 247.266 98.2539C246.641 96.8477 245.938 95.5391 245.156 94.3281C245.078 94.4844 244.941 94.6406 244.746 94.7969C244.551 94.9531 244.336 94.9141 244.102 94.6797C244.023 94.9922 243.887 95.2266 243.691 95.3828C243.496 95.5 243.281 95.5586 243.047 95.5586C242.812 95.5195 242.559 95.4609 242.285 95.3828C242.051 95.2656 241.836 95.1289 241.641 94.9727C240.508 95.8711 239.375 96.75 238.242 97.6094C237.109 98.4688 236.094 99.4648 235.195 100.598C235.039 100.676 234.941 100.715 234.902 100.715C234.863 100.676 234.746 100.695 234.551 100.773C234.238 101.516 233.848 102.199 233.379 102.824C232.949 103.41 232.52 104.016 232.09 104.641C231.66 105.266 231.289 105.93 230.977 106.633C230.664 107.336 230.488 108.156 230.449 109.094C231.113 109.641 231.895 109.973 232.793 110.09C233.691 110.207 234.609 110.227 235.547 110.148C236.523 110.07 237.461 109.953 238.359 109.797C239.297 109.602 240.156 109.504 240.938 109.504C242.578 109.113 243.984 108.605 245.156 107.98C246.328 107.316 247.559 106.652 248.848 105.988ZM288.633 102.18C288.594 102.375 288.555 102.551 288.516 102.707C288.477 102.824 288.438 102.941 288.398 103.059C288.359 103.176 288.34 103.332 288.34 103.527C288.34 103.684 288.34 103.898 288.34 104.172C287.168 106.242 285.684 107.98 283.887 109.387C282.129 110.793 280.176 112.043 278.027 113.137C275.918 114.191 273.711 115.168 271.406 116.066C269.102 116.926 266.855 117.863 264.668 118.879C263.73 118.645 263.008 118.254 262.5 117.707C262.031 117.16 261.66 116.535 261.387 115.832C261.152 115.09 260.977 114.289 260.859 113.43C260.781 112.531 260.703 111.613 260.625 110.676C260.742 110.246 260.898 109.895 261.094 109.621C261.328 109.309 261.445 108.879 261.445 108.332C261.758 107.316 262.07 106.32 262.383 105.344C262.695 104.367 262.891 103.371 262.969 102.355C263.086 102.043 263.301 101.828 263.613 101.711C263.809 99.8359 263.809 97.9414 263.613 96.0273C263.457 94.0742 263.145 92.2578 262.676 90.5781C262.715 90.1875 262.754 89.9141 262.793 89.7578C262.871 89.5625 262.871 89.4258 262.793 89.3477C262.754 89.0352 262.852 88.8789 263.086 88.8789C263.359 88.8789 263.633 88.8789 263.906 88.8789C263.906 88.293 263.789 87.707 263.555 87.1211C263.359 86.5352 263.164 85.8711 262.969 85.1289C263.242 84.543 263.418 83.9766 263.496 83.4297C263.574 82.8438 263.75 82.3359 264.023 81.9062C266.133 82.5703 268.145 83.3711 270.059 84.3086C272.012 85.2461 273.926 85.9297 275.801 86.3594C277.207 87.375 278.652 88.3906 280.137 89.4062C281.621 90.3828 282.969 91.4766 284.18 92.6875C285.391 93.8594 286.406 95.207 287.227 96.7305C288.047 98.2539 288.516 100.07 288.633 102.18ZM274.746 105.402C275.566 105.09 276.367 104.758 277.148 104.406C277.969 104.055 278.711 103.664 279.375 103.234C280.078 102.766 280.703 102.238 281.25 101.652C281.797 101.066 282.246 100.363 282.598 99.543C282.363 99.0742 282.051 98.6641 281.66 98.3125C281.27 97.9219 280.879 97.5703 280.488 97.2578C280.098 96.9062 279.707 96.5547 279.316 96.2031C278.965 95.8516 278.672 95.4219 278.438 94.9141C277.93 94.8359 277.48 94.6992 277.09 94.5039C276.699 94.2695 276.309 94.0547 275.918 93.8594C275.566 93.625 275.176 93.4102 274.746 93.2148C274.355 93.0195 273.887 92.9023 273.34 92.8633C272.48 92.4336 271.699 92.1211 270.996 91.9258C270.332 91.7305 269.824 91.4766 269.473 91.1641C269.199 91.1641 268.984 91.2227 268.828 91.3398C269.219 92.8242 269.512 94.2305 269.707 95.5586C269.902 96.8477 270 98.1562 270 99.4844C270.039 100.773 269.98 102.102 269.824 103.469C269.668 104.836 269.453 106.32 269.18 107.922C269.57 107.883 269.922 107.805 270.234 107.688C270.586 107.531 270.918 107.375 271.23 107.219C271.582 107.062 271.934 106.926 272.285 106.809C272.676 106.652 273.125 106.555 273.633 106.516C273.75 106.281 273.906 106.086 274.102 105.93C274.336 105.773 274.551 105.598 274.746 105.402ZM321.68 85.0117C321.719 85.2852 321.719 85.5 321.68 85.6562C321.68 85.7734 321.66 85.8906 321.621 86.0078C321.621 86.125 321.621 86.2617 321.621 86.418C321.621 86.5352 321.66 86.7305 321.738 87.0039C320.918 88.332 319.961 89.25 318.867 89.7578C317.812 90.2266 316.66 90.5781 315.41 90.8125C314.16 91.0078 312.871 91.2227 311.543 91.457C310.254 91.6914 308.965 92.1992 307.676 92.9805C307.168 92.7852 306.699 92.7852 306.27 92.9805C305.879 93.1758 305.293 93.2344 304.512 93.1562C304.277 93.3906 303.984 93.5664 303.633 93.6836C303.281 93.7617 302.93 93.8594 302.578 93.9766C302.734 94.3281 302.793 94.6992 302.754 95.0898C302.754 95.4414 302.812 95.7344 302.93 95.9688C304.297 96.0859 305.801 96.0664 307.441 95.9102C309.121 95.7539 310.762 95.6562 312.363 95.6172C312.402 95.8125 312.383 95.9492 312.305 96.0273C312.227 96.0664 312.207 96.1641 312.246 96.3203C312.52 96.5156 312.793 96.7695 313.066 97.082C313.34 97.3555 313.613 97.6289 313.887 97.9023C314.16 98.1758 314.434 98.4102 314.707 98.6055C315.02 98.7617 315.371 98.8203 315.762 98.7812C315.918 99.0938 316.016 99.4453 316.055 99.8359C316.133 100.188 316.094 100.559 315.938 100.949C315.312 101.379 314.688 101.828 314.062 102.297C313.438 102.727 312.773 103.117 312.07 103.469C311.406 103.82 310.684 104.113 309.902 104.348C309.16 104.543 308.32 104.621 307.383 104.582C307.188 104.582 307.031 104.582 306.914 104.582C306.836 104.582 306.719 104.523 306.562 104.406C306.25 104.602 305.801 104.66 305.215 104.582C304.668 104.504 304.238 104.562 303.926 104.758C303.496 104.562 302.969 104.484 302.344 104.523C301.758 104.523 301.23 104.445 300.762 104.289C300.137 105.109 299.57 105.988 299.062 106.926C298.555 107.863 298.105 108.859 297.715 109.914C299.043 110.109 300.137 110.188 300.996 110.148C301.895 110.109 302.734 110.051 303.516 109.973C304.297 109.855 305.098 109.758 305.918 109.68C306.738 109.562 307.773 109.523 309.023 109.562C309.805 109.133 310.723 108.859 311.777 108.742C312.871 108.586 313.867 108.352 314.766 108.039C315.078 108.156 315.352 108.371 315.586 108.684C315.82 108.957 316.035 109.23 316.23 109.504C316.465 109.738 316.699 109.953 316.934 110.148C317.168 110.344 317.461 110.422 317.812 110.383C317.969 110.539 318.066 110.734 318.105 110.969C318.184 111.164 318.242 111.359 318.281 111.555C318.32 111.75 318.379 111.926 318.457 112.082C318.574 112.199 318.75 112.238 318.984 112.199C318.398 113.488 317.715 114.484 316.934 115.188C316.191 115.852 315.332 116.359 314.355 116.711C313.379 117.062 312.285 117.336 311.074 117.531C309.902 117.727 308.594 117.961 307.148 118.234C306.797 118.312 306.504 118.293 306.27 118.176C306.035 118.098 305.762 118.059 305.449 118.059C304.551 118.254 303.477 118.43 302.227 118.586C300.977 118.742 299.707 118.801 298.418 118.762C297.129 118.723 295.898 118.547 294.727 118.234C293.555 117.961 292.598 117.453 291.855 116.711C291.543 116.438 291.328 116.125 291.211 115.773C291.133 115.383 290.879 115.09 290.449 114.895C290.41 114.387 290.332 113.82 290.215 113.195C290.098 112.57 289.98 111.926 289.863 111.262C289.746 110.559 289.648 109.875 289.57 109.211C289.531 108.547 289.57 107.941 289.688 107.395C289.805 106.809 290.039 106.281 290.391 105.812C290.781 105.344 290.918 104.836 290.801 104.289C290.996 104.25 291.113 104.152 291.152 103.996C291.191 103.801 291.348 103.723 291.621 103.762C291.855 103.059 292.109 102.395 292.383 101.77C292.656 101.145 292.93 100.539 293.203 99.9531C293.516 99.3672 293.809 98.7812 294.082 98.1953C294.395 97.5703 294.688 96.8867 294.961 96.1445C294.414 95.6367 294.004 95.0898 293.73 94.5039C293.496 93.8789 293.32 93.2734 293.203 92.6875C293.086 92.0625 292.988 91.4375 292.91 90.8125C292.832 90.1484 292.695 89.4844 292.5 88.8203C292.891 88.2344 293.359 87.7656 293.906 87.4141C294.492 87.0234 295.117 86.7109 295.781 86.4766C296.445 86.2422 297.168 86.0469 297.949 85.8906C298.73 85.7344 299.551 85.5586 300.41 85.3633C301.973 84.8555 303.359 84.4648 304.57 84.1914C305.82 83.918 307.031 83.7031 308.203 83.5469C309.414 83.3516 310.664 83.1758 311.953 83.0195C313.242 82.8633 314.707 82.6289 316.348 82.3164C316.699 82.668 317.031 82.8438 317.344 82.8438C317.5 82.4922 317.676 82.3945 317.871 82.5508C318.105 82.668 318.203 82.5508 318.164 82.1992C318.555 82.8633 319.043 83.4297 319.629 83.8984C320.254 84.3281 320.938 84.6992 321.68 85.0117Z" fill="black"/>
</svg>
