<svg width="139" height="139" viewBox="0 0 139 139" fill="none" xmlns="http://www.w3.org/2000/svg">
<mask id="mask0" mask-type="alpha" maskUnits="userSpaceOnUse" x="44" y="0" width="48" height="127">
<path d="M91.2938 34.4876L82.7566 2.80099e-05L66.0788 29.4386L44.9093 122.342L75.13 126.01L91.2938 34.4876Z" fill="#F8A339"/>
</mask>
<g mask="url(#mask0)">
<rect x="149.537" y="79.361" width="110.714" height="129.114" transform="rotate(145.85 149.537 79.361)" fill="#F8A339"/>
<path d="M118.515 27.5918L113.138 27.3864L111.189 32.4195L105.915 31.1834L103.053 35.7206L98.0734 33.4986L94.401 37.3757L89.8961 34.2481L85.5467 37.3252L81.679 33.405L76.8097 35.5707L73.7189 30.9996L68.5057 32.1757L66.3036 27.1189L60.935 27.2629L59.701 21.9032L54.3711 21.0099L54.1499 15.541L49.0512 13.6427L49.8509 8.26217L45.1677 5.42747L46.9593 0.329863L42.8609 -3.33878L45.5796 -7.96924L42.2141 -12.3393L45.7618 -16.3352L43.2508 -21.2486L47.4991 -24.4656L45.9335 -29.7449L50.7289 -32.0667L50.1652 -37.521L55.3344 -38.8637L55.7929 -44.2959L61.1492 -44.6109L62.6134 -49.8247L67.963 -49.1007L70.38 -53.9076L75.5297 -52.1707L78.812 -56.397L83.5756 -53.71L87.6048 -57.2029L91.8101 -53.663L96.4405 -56.2963L99.9356 -52.0313L105 -53.7099L107.658 -48.874L112.973 -49.5371L114.699 -44.3051L120.073 -43.9288L120.803 -38.4898L126.042 -37.0877L125.751 -31.6383L130.664 -29.261L129.363 -23.9981L133.773 -20.7317L131.508 -15.8455L135.257 -11.8079L132.109 -7.47509L135.061 -2.81226L131.145 0.810633L133.193 5.93016L128.65 8.71217L129.72 14.1034L124.715 15.9439L124.768 21.412L119.481 22.2446L118.515 27.5918Z" fill="#F9E5C7"/>
<rect width="13.4999" height="19.6831" transform="matrix(-0.177202 0.984174 -0.971474 -0.237146 91.9702 -3.38245)" fill="#483A3A"/>
</g>
</svg>
